<?xml version="1.0" encoding="utf-8"?>
<!-- Generator: Adobe Illustrator 17.0.0, SVG Export Plug-In . SVG Version: 6.00 Build 0)  -->
<!DOCTYPE svg PUBLIC "-//W3C//DTD SVG 1.1//EN" "http://www.w3.org/Graphics/SVG/1.1/DTD/svg11.dtd">
<svg version="1.1" id="레이어_1" xmlns="http://www.w3.org/2000/svg" xmlns:xlink="http://www.w3.org/1999/xlink" x="0px"
	 y="0px" width="170px" height="61px" viewBox="0 0 170 61" enable-background="new 0 0 170 61" xml:space="preserve">
<path fill="#D71718" d="M22.057,19.112H6.741v-0.005l-5.63-0.079c0,0-1.226,0.014-0.874,1.469c0.285,1.179,0.395,2.14,0.428,2.546
	v0.215h8.302v18.222h5.426V23.258h7.665V19.112z"/>
<path fill="#D71718" d="M67.274,33.083c0.029,5.544-3.472,6.152-4.981,6.11c-1.512-0.043-5.09-1.23-4.932-6.11V19.829l-0.004-0.731
	l-5.031-0.052c0,0-1.423-0.134-1.005,1.506c0.271,1.064,0.378,2.033,0.403,2.7l-0.003,9.786c0,1.129,0.213,2.2,0.646,3.206
	c2.365,5.509,8.425,5.303,10.052,5.303c1.814,0,6.752,0.176,8.948-5.28c0.402-0.999,0.583-2.064,0.583-3.185V19.112h-4.675V33.083z"
	/>
<path fill="#D71718" d="M90.578,29.549c0.622-0.361,1.156-0.773,1.602-1.237c0.445-0.463,0.789-0.972,1.033-1.527
	c0.243-0.555,0.365-1.138,0.365-1.749c0-0.855-0.178-1.643-0.536-2.367c-0.358-0.722-0.894-1.348-1.609-1.878
	c-0.716-0.529-1.612-0.941-2.69-1.237c-1.078-0.295-2.332-0.443-3.763-0.443h-3.584v-0.005l-4.186-0.096c0,0-2.087-0.2-1.661,1.552
	c0.343,1.41,0.42,2.552,0.428,2.689L75.967,41.55h5.427V31.007h1.658L90.93,41.52h5.893l-8.313-11.078
	C89.266,30.208,89.956,29.911,90.578,29.549z M87.561,26.815c-0.239,0.494-0.566,0.912-0.98,1.252
	c-0.415,0.341-0.904,0.603-1.469,0.786c-0.565,0.183-1.18,0.275-1.843,0.275h-1.876v-7.285h2.902c0.529,0,1.014,0.097,1.454,0.29
	c0.44,0.194,0.821,0.466,1.143,0.817c0.321,0.351,0.567,0.768,0.754,1.245C87.889,24.813,87.8,26.322,87.561,26.815z"/>
<path fill="#D71718" d="M105.576,19.112h-0.066v-0.005l-4.939-0.134c0,0-1.31-0.062-0.896,1.559
	c0.265,1.036,0.444,1.939,0.491,2.719l-0.018,18.299h16.731v-4.068h-11.304V19.112z"/>
<path fill="#D71718" d="M144.329,32.946l-10.753-13.835h-0.148l-0.001-0.001l-2.858-0.137c0,0-1.248-0.218-0.689,1.56
	c0.314,1,0.229,2.121,0.277,2.575l-0.048,18.441h5.309l0.041-13.373l10.114,13.309h4.096l-0.061-22.374h-5.278V32.946z"/>
<path fill="#D71718" d="M169.747,22.286v-3.175l-11.602,0.038l-3.892-0.088c0,0-1.676-0.297-1.324,1.481
	c0.342,1.728,0.215,1.98,0.284,5.688l0.007,15.319h16.527v-3.409h-11.102v-6.372h9.222v-3.87h-9.222v-5.612H169.747z"/>
<path fill="#D71718" d="M125.439,19.107l-5.008-0.165c0,0-1.185-0.156-0.779,1.552c0.282,1.185,0.395,2.303,0.433,2.637V41.58h5.426
	V19.112h-0.071V19.107z"/>
<g>
	<path fill="#D71718" d="M126.298,60.428l-2.013-0.016v-4.336h-4.628v-1.484h11.327v1.484h-4.686V60.428z M120.807,52.728v-3.524
		c-0.005-0.131-0.014-0.25-0.027-0.36c-0.023-0.195-0.047-0.36-0.093-0.484c-0.156-0.426,0.314-0.361,0.314-0.361h0.303h8.444v1.512
		h-7.063v0.589h6.935v1.473l-6.916-0.005c0,0,0.003,0.197-0.001,0.621h7.036v1.485h-7.801
		C120.84,53.673,120.807,53.852,120.807,52.728z"/>
	<g>
		<path fill="#D71718" d="M155.308,51.426l-0.003-3.829h-2.042c0,0-0.333-0.066-0.232,0.34c0.185,0.745,0.222,1.468,0.222,1.267
			v0.247v4.839c-0.348,0.12-0.816,0.187-1.486,0.187h-4.303v-1.58h4.116c0.214,0,0.319-0.121,0.319-0.295v-4.055
			c0-0.134-0.105-0.187-0.199-0.187h-6.545v1.499h4.605v1.567h-4.806c0,0,0.355,0.523,0.355,0.951v2.502
			c0,0.802,0.308,1.111,1.124,1.111h4.799c0.95,0,1.539-0.054,2.021-0.201v4.606h2.055v-7.183h1.74v-1.786H155.308z"/>
		<path fill="#D71718" d="M140.387,49.204l-0.001,0.247l-0.003,1.573h-1.184c-0.353-1.585-1.764-2.769-3.454-2.769
			c-1.956,0-3.541,1.584-3.541,3.54c0,1.956,1.585,3.541,3.541,3.541c1.654,0,3.038-1.135,3.427-2.667h1.211v7.724l2.037,0.017
			V49.45v-1.854h-1.983c0,0-0.374-0.029-0.272,0.345C140.368,48.681,140.387,49.404,140.387,49.204z M135.745,53.566
			c-0.977,0-1.77-0.793-1.77-1.771c0-0.976,0.792-1.77,1.77-1.77c0.978,0,1.77,0.794,1.77,1.77
			C137.515,52.773,136.723,53.566,135.745,53.566z"/>
	</g>
	<g>
		<path fill="#D71718" d="M162.541,48.255c-1.956,0-3.542,1.584-3.542,3.54c0,1.956,1.586,3.541,3.542,3.541
			c1.956,0,3.541-1.585,3.541-3.541C166.082,49.84,164.497,48.255,162.541,48.255z M162.541,53.566
			c-0.977,0-1.771-0.793-1.771-1.771c0-0.976,0.794-1.77,1.771-1.77c0.977,0,1.771,0.794,1.771,1.77
			C164.312,52.773,163.517,53.566,162.541,53.566z"/>
		<path fill="#D71718" d="M167.344,49.204v0.247h-0.002v6.557h2.115V49.45h-0.002v-1.854h-2.182c0,0-0.254-0.039-0.154,0.335
			C167.319,48.675,167.344,49.405,167.344,49.204z"/>
		<path fill="#D71718" d="M163.12,58.899c-0.094,0-0.148-0.053-0.148-0.134v-2.569h-2.042c0,0-0.314-0.027-0.217,0.322
			c0.062,0.222,0.115,0.541,0.104,0.883v1.928c0,0.736,0.376,1.083,1.138,1.083h7.872v-1.513H163.12z"/>
	</g>
</g>
<g>
	<path fill="#D71718" d="M33.319,18.315v-0.06c-2.432,0.625-4.769,1.607-6.734,3.096l3.398,2.143
		C30.327,22.243,32.072,19.416,33.319,18.315z"/>
	<path fill="#D71718" d="M30.981,35.667c1.216-0.506,2.868-0.714,4.395-0.714c1.528,0,3.18,0.208,4.614,0.714
		c0.499-1.428,0.748-3.036,0.904-4.554H30.046C30.202,32.75,30.514,34.655,30.981,35.667z"/>
	<path fill="#D71718" d="M42.391,29.714h6.016c-0.436-3.125-1.091-4.851-3.149-7.292c-0.779,0.744-2.868,1.964-3.897,2.262
		C41.985,25.844,42.234,28.464,42.391,29.714z"/>
	<path fill="#D71718" d="M29.578,24.684c-1.028-0.298-3.117-1.519-3.897-2.262c-2.057,2.441-2.712,4.167-3.148,7.292h6.016
		C28.706,28.464,28.955,25.844,29.578,24.684z"/>
	<path fill="#D71718" d="M39.99,25.131c-1.434,0.505-3.086,0.743-4.614,0.743c-1.527,0-3.179-0.238-4.395-0.743
		c-0.467,1.012-0.779,2.917-0.935,4.554h10.848C40.738,28.166,40.49,26.558,39.99,25.131z"/>
	<path fill="#D71718" d="M41.019,23.494l3.398-2.143c-1.964-1.489-4.302-2.471-6.734-3.096v0.06
		C38.93,19.416,40.676,22.243,41.019,23.494z"/>
	<path fill="#D71718" d="M35.47,24.624c1.434,0,2.805-0.267,4.209-0.506c-0.967-2.024-2.713-4.345-4.209-6.042
		c-1.496,1.697-3.242,4.018-4.208,6.042C32.665,24.357,34.036,24.624,35.47,24.624z"/>
	<path fill="#D71718" d="M41.362,36.173c1.029,0.298,3.118,1.518,3.897,2.262c2.057-2.44,2.712-4.167,3.149-7.292h-6.016
		C42.234,32.392,41.985,35.012,41.362,36.173z"/>
	<path fill="#D71718" d="M28.55,31.142h-6.016c0.436,3.125,1.091,4.852,3.148,7.292c0.779-0.744,2.868-1.964,3.897-2.262
		C28.955,35.012,28.706,32.392,28.55,31.142z"/>
	<path fill="#D71718" d="M37.652,42.542v0.06c2.431-0.625,4.769-1.607,6.733-3.096l-3.398-2.142
		C40.645,38.613,38.899,41.441,37.652,42.542z"/>
	<path fill="#D71718" d="M35.47,36.202c-1.434,0-2.805,0.298-4.208,0.536c0.967,2.024,2.712,4.346,4.208,6.042
		c1.496-1.697,3.242-4.018,4.209-6.042C38.275,36.5,36.904,36.202,35.47,36.202z"/>
	<path fill="#D71718" d="M29.953,37.363l-3.398,2.142c1.964,1.489,4.302,2.471,6.733,3.096v-0.06
		C32.042,41.441,30.295,38.613,29.953,37.363z"/>
</g>
<path fill="#D71718" d="M45.699,8.418l1.23,5.104l0.751-0.565l0.569-7.68c4.982-3.971,5.206-4.826,5.007-5.091
	c-0.199-0.265-1.014-0.253-6.033,3.66c0,0-1.368-0.256-2.168-0.364l-5.495-0.923l-0.637,0.58l4.429,2.291l0.867,0.837
	C43.037,7.27,42,8.211,41.193,8.997L38.888,8.53l-0.563,0.475l1.636,1.27c-0.427,0.486-0.637,0.807-0.572,0.893
	c0.064,0.086,0.41-0.038,0.965-0.334l0.842,1.786l0.539-0.303l0.032-2.321c0.969-0.615,2.169-1.438,3.477-2.403L45.699,8.418z"/>
<line fill="none" stroke="#D71718" stroke-width="0.5" stroke-miterlimit="10" x1="116.802" y1="51.021" x2="8.652" y2="51.021"/>
</svg>
